<?xml version="1.0" encoding="UTF-8"?>
<svg version="1.1" xmlns="http://www.w3.org/2000/svg" width="193" height="201">
<path d="M0 0 C63.69 0 127.38 0 193 0 C193 66.33 193 132.66 193 201 C129.31 201 65.62 201 0 201 C0 134.67 0 68.34 0 0 Z " fill="#000000" transform="translate(0,0)"/>
<path d="M0 0 C2.64 0 5.28 0 8 0 C8 2.64 8 5.28 8 8 C5.36 8 2.72 8 0 8 C0 9.65 0 11.3 0 13 C12.54 13 25.08 13 38 13 C38 17.62 38 22.24 38 27 C23.81 27 9.62 27 -5 27 C-5 51.09 -5 75.18 -5 100 C-1.7 100 1.6 100 5 100 C5 78.55 5 57.1 5 35 C7.97 35 10.94 35 14 35 C14 33.68 14 32.36 14 31 C17.3 31 20.6 31 24 31 C24 34.3 24 37.6 24 41 C22.35 41 20.7 41 19 41 C19 57.83 19 74.66 19 92 C21.31 92 23.62 92 26 92 C26 94.64 26 97.28 26 100 C29.96 100 33.92 100 38 100 C38 104.95 38 109.9 38 115 C12.92 115 -12.16 115 -38 115 C-38 110.05 -38 105.1 -38 100 C-32.06 100 -26.12 100 -20 100 C-20 75.91 -20 51.82 -20 27 C-25.94 27 -31.88 27 -38 27 C-38 22.38 -38 17.76 -38 13 C-29.42 13 -20.84 13 -12 13 C-12 11.02 -12 9.04 -12 7 C-8.04 7 -4.08 7 0 7 C0 4.69 0 2.38 0 0 Z " fill="#3BB7E2" transform="translate(97,38)"/>
<path d="M0 0 C2.64 0 5.28 0 8 0 C8 2.64 8 5.28 8 8 C5.36 8 2.72 8 0 8 C0 9.98 0 11.96 0 14 C0.66 14.33 1.32 14.66 2 15 C1.3125 17.4375 1.3125 17.4375 0 20 C-2.3125 20.75 -2.3125 20.75 -5 21 C-5.928125 21.185625 -6.85625 21.37125 -7.8125 21.5625 C-8.534375 21.706875 -9.25625 21.85125 -10 22 C-10.66 23.98 -11.32 25.96 -12 28 C-13.98 28.33 -15.96 28.66 -18 29 C-18 28.34 -18 27.68 -18 27 C-24.6 27 -31.2 27 -38 27 C-38 22.38 -38 17.76 -38 13 C-29.42 13 -20.84 13 -12 13 C-12 11.02 -12 9.04 -12 7 C-8.04 7 -4.08 7 0 7 C0 4.69 0 2.38 0 0 Z " fill="#61CCE8" transform="translate(97,38)"/>
<path d="M0 0 C0.33 0 0.66 0 1 0 C1 24.42 1 48.84 1 74 C-4.94 74 -10.88 74 -17 74 C-17 77.96 -17 81.92 -17 86 C7.09 85.67 31.18 85.34 56 85 C56.33 81.37 56.66 77.74 57 74 C53.37 74 49.74 74 46 74 C46 73.67 46 73.34 46 73 C49.96 73 53.92 73 58 73 C58 77.95 58 82.9 58 88 C32.92 88 7.84 88 -18 88 C-18 83.05 -18 78.1 -18 73 C-12.06 73 -6.12 73 0 73 C0 48.91 0 24.82 0 0 Z " fill="#126485" transform="translate(77,65)"/>
<path d="M0 0 C4.62 0 9.24 0 14 0 C14 4.62 14 9.24 14 14 C9.38 14 4.76 14 0 14 C0 9.38 0 4.76 0 0 Z " fill="#65D2EF" transform="translate(109,130)"/>
<path d="M0 0 C3.63 0 7.26 0 11 0 C11 1.65 11 3.3 11 5 C11.66 5.33 12.32 5.66 13 6 C12.3125 8.4375 12.3125 8.4375 11 11 C8.6875 11.75 8.6875 11.75 6 12 C5.071875 12.185625 4.14375 12.37125 3.1875 12.5625 C2.465625 12.706875 1.74375 12.85125 1 13 C0.34 14.98 -0.32 16.96 -1 19 C-2.98 19.33 -4.96 19.66 -7 20 C-8.4783226 17.04335481 -8.06032783 14.25770263 -8 11 C-5.36 11 -2.72 11 0 11 C0 7.37 0 3.74 0 0 Z " fill="#8BE5FC" transform="translate(86,47)"/>
<path d="M0 0 C3.3 0 6.6 0 10 0 C10 3.3 10 6.6 10 10 C6.7 10.33 3.4 10.66 0 11 C0 7.37 0 3.74 0 0 Z " fill="#82D7EC" transform="translate(111,69)"/>
<path d="M0 0 C2.97 0 5.94 0 9 0 C9 2.97 9 5.94 9 9 C6.03 9 3.06 9 0 9 C0 6.03 0 3.06 0 0 Z " fill="#60C4DE" transform="translate(123,121)"/>
<path d="M0 0 C1.37478516 0.01740234 1.37478516 0.01740234 2.77734375 0.03515625 C3.69644531 0.04417969 4.61554688 0.05320313 5.5625 0.0625 C6.27277344 0.07410156 6.98304687 0.08570313 7.71484375 0.09765625 C5.71484375 2.09765625 5.71484375 2.09765625 2.08984375 2.22265625 C0.97609375 2.18140625 -0.13765625 2.14015625 -1.28515625 2.09765625 C-1.65640625 3.23203125 -2.02765625 4.36640625 -2.41015625 5.53515625 C-3.21875 7.47265625 -3.21875 7.47265625 -4.28515625 9.09765625 C-7.47265625 10.03515625 -7.47265625 10.03515625 -10.28515625 10.09765625 C-11.76347885 7.14101106 -11.34548408 4.35535888 -11.28515625 1.09765625 C-9.98578125 1.11828125 -8.68640625 1.13890625 -7.34765625 1.16015625 C-5.99349992 1.18165079 -4.63759542 1.16913824 -3.28515625 1.09765625 C-2.28515625 0.09765625 -2.28515625 0.09765625 0 0 Z " fill="#80E0F9" transform="translate(89.28515625,56.90234375)"/>
<path d="M0 0 C2.64 0 5.28 0 8 0 C8 2.64 8 5.28 8 8 C1.4 8 -5.2 8 -12 8 C-12 7.67 -12 7.34 -12 7 C-8.04 7 -4.08 7 0 7 C0 4.69 0 2.38 0 0 Z " fill="#548996" transform="translate(97,38)"/>
<path d="M0 0 C1.98 0 3.96 0 6 0 C6 1.98 6 3.96 6 6 C4.02 6 2.04 6 0 6 C0 4.02 0 2.04 0 0 Z " fill="#8CE3F9" transform="translate(98,39)"/>
<path d="M0 0 C3.96 0 7.92 0 12 0 C12 0.33 12 0.66 12 1 C8.37 1 4.74 1 1 1 C1.33 4.63 1.66 8.26 2 12 C-1.06890187 13.53445094 -3.70094266 12.54984289 -7 12 C-7 11.67 -7 11.34 -7 11 C-4.69 11 -2.38 11 0 11 C0 7.37 0 3.74 0 0 Z " fill="#75C9DF" transform="translate(85,46)"/>
</svg>
